{
  "accessors": [
    {
      "bufferView": 2,
      "componentType": 5126,
      "count": 1150,
      "max": [
        4.427157878875732,
        8.466313362121582,
        7.209727764129639
      ],
      "min": [
        -4.427157878875732,
        -6.713293075561523,
        -6.06446647644043
      ],
      "type": "VEC3"
    },
    {
      "bufferView": 2,
      "byteOffset": 13800,
      "componentType": 5126,
      "count": 1150,
      "max": [
        0.9996218681335449,
        0.9981264472007751,
        0.9997966885566711
      ],
      "min": [
        -0.9996142983436584,
        -1.0,
        -0.99994295835495
      ],
      "type": "VEC3"
    },
    {
      "bufferView": 1,
      "componentType": 5126,
      "count": 1150,
      "max": [
        1.0000001192092896,
        1.000000238418579
      ],
      "min": [
        -0.2774384915828705,
        -0.2774384915828705
      ],
      "type": "VEC2"
    },
    {
      "bufferView": 0,
      "componentType": 5125,
      "count": 6852,
      "type": "SCALAR"
    },
    {
      "bufferView": 2,
      "byteOffset": 27600,
      "componentType": 5126,
      "count": 22,
      "max": [
        0.2426927536725998,
        -6.542192459106445,
        1.7189329862594604
      ],
      "min": [
        -0.24164274334907532,
        -6.67756986618042,
        1.1781666278839111
      ],
      "type": "VEC3"
    },
    {
      "bufferView": 2,
      "byteOffset": 27864,
      "componentType": 5126,
      "count": 22,
      "max": [
        0.3068998157978058,
        -0.837988018989563,
        0.10246609896421432
      ],
      "min": [
        -0.30643174052238464,
        -0.9947364330291748,
        -0.49644848704338074
      ],
      "type": "VEC3"
    },
    {
      "bufferView": 1,
      "byteOffset": 9200,
      "componentType": 5126,
      "count": 22,
      "max": [
        0.0,
        0.0
      ],
      "min": [
        0.0,
        0.0
      ],
      "type": "VEC2"
    },
    {
      "bufferView": 0,
      "byteOffset": 27408,
      "componentType": 5125,
      "count": 96,
      "type": "SCALAR"
    },
    {
      "bufferView": 2,
      "byteOffset": 28128,
      "componentType": 5126,
      "count": 1579,
      "max": [
        4.520748615264893,
        8.565959930419922,
        7.309630870819092
      ],
      "min": [
        -4.520748615264893,
        -6.813292503356934,
        -6.163825511932373
      ],
      "type": "VEC3"
    },
    {
      "bufferView": 2,
      "byteOffset": 47076,
      "componentType": 5126,
      "count": 1579,
      "max": [
        0.9997517466545105,
        0.9999999403953552,
        0.9999433159828186
      ],
      "min": [
        -0.9997619986534119,
        -0.9988098740577698,
        -0.999796986579895
      ],
      "type": "VEC3"
    },
    {
      "bufferView": 1,
      "byteOffset": 9376,
      "componentType": 5126,
      "count": 1579,
      "max": [
        1.000000238418579,
        1.000000238418579
      ],
      "min": [
        -0.2774384915828705,
        -0.2774384915828705
      ],
      "type": "VEC2"
    },
    {
      "bufferView": 0,
      "byteOffset": 27792,
      "componentType": 5125,
      "count": 9090,
      "type": "SCALAR"
    },
    {
      "bufferView": 2,
      "byteOffset": 66024,
      "componentType": 5126,
      "count": 108,
      "max": [
        0.4732023775577545,
        -4.06663179397583,
        6.252204895019531
      ],
      "min": [
        -0.47320249676704407,
        -5.286261558532715,
        5.511103630065918
      ],
      "type": "VEC3"
    },
    {
      "bufferView": 2,
      "byteOffset": 67320,
      "componentType": 5126,
      "count": 108,
      "max": [
        0.9996967911720276,
        0.8844072222709656,
        0.9687455892562866
      ],
      "min": [
        -0.9997000098228455,
        -0.990759551525116,
        -0.4590921700000763
      ],
      "type": "VEC3"
    },
    {
      "bufferView": 1,
      "byteOffset": 22008,
      "componentType": 5126,
      "count": 108,
      "max": [
        0.0,
        0.0
      ],
      "min": [
        0.0,
        0.0
      ],
      "type": "VEC2"
    },
    {
      "bufferView": 0,
      "byteOffset": 64152,
      "componentType": 5125,
      "count": 534,
      "type": "SCALAR"
    },
    {
      "bufferView": 2,
      "byteOffset": 68616,
      "componentType": 5126,
      "count": 338,
      "max": [
        3.353663444519043,
        6.53177547454834,
        4.318101406097412
      ],
      "min": [
        -3.3536629676818848,
        0.17643237113952637,
        -0.41088345646858215
      ],
      "type": "VEC3"
    },
    {
      "bufferView": 2,
      "byteOffset": 72672,
      "componentType": 5126,
      "count": 338,
      "max": [
        0.989890456199646,
        0.9966657757759094,
        0.9999263882637024
      ],
      "min": [
        -0.989890992641449,
        -0.9663079380989075,
        -0.9432751536369324
      ],
      "type": "VEC3"
    },
    {
      "bufferView": 1,
      "byteOffset": 22872,
      "componentType": 5126,
      "count": 338,
      "max": [
        1.000000238418579,
        0.9692419767379761
      ],
      "min": [
        0.0,
        0.0
      ],
      "type": "VEC2"
    },
    {
      "bufferView": 0,
      "byteOffset": 66288,
      "componentType": 5125,
      "count": 1746,
      "type": "SCALAR"
    },
    {
      "bufferView": 2,
      "byteOffset": 76728,
      "componentType": 5126,
      "count": 146,
      "max": [
        2.454500913619995,
        -5.405426025390625,
        4.605563640594482
      ],
      "min": [
        -2.454500675201416,
        -6.562027931213379,
        2.509427070617676
      ],
      "type": "VEC3"
    },
    {
      "bufferView": 2,
      "byteOffset": 78480,
      "componentType": 5126,
      "count": 146,
      "max": [
        0.9963162541389465,
        0.07261865586042404,
        0.9647458791732788
      ],
      "min": [
        -0.9963162541389465,
        -0.9953137040138245,
        -0.7024982571601868
      ],
      "type": "VEC3"
    },
    {
      "bufferView": 1,
      "byteOffset": 25576,
      "componentType": 5126,
      "count": 146,
      "max": [
        0.0,
        0.0
      ],
      "min": [
        0.0,
        0.0
      ],
      "type": "VEC2"
    },
    {
      "bufferView": 0,
      "byteOffset": 73272,
      "componentType": 5125,
      "count": 768,
      "type": "SCALAR"
    }
  ],
  "asset": {
    "extras": {
      "author": "HTH (https://sketchfab.com/hth317)",
      "license": "CC-BY-4.0 (http://creativecommons.org/licenses/by/4.0/)",
      "source": "https://sketchfab.com/3d-models/chomusuke-fcdfb068ecc34d4780cf377c536fd650",
      "title": "Chomusuke"
    },
    "generator": "Sketchfab-16.12.0",
    "version": "2.0"
  },
  "bufferViews": [
    {
      "buffer": 0,
      "byteLength": 76344,
      "name": "floatBufferViews",
      "target": 34963
    },
    {
      "buffer": 0,
      "byteLength": 26744,
      "byteOffset": 76344,
      "byteStride": 8,
      "name": "floatBufferViews",
      "target": 34962
    },
    {
      "buffer": 0,
      "byteLength": 80232,
      "byteOffset": 103088,
      "byteStride": 12,
      "name": "floatBufferViews",
      "target": 34962
    }
  ],
  "buffers": [
    {
      "byteLength": 183320,
      "uri": "scene.bin"
    }
  ],
  "extensionsUsed": [
    "KHR_materials_specular",
    "KHR_materials_emissive_strength"
  ],
  "materials": [
    {
      "doubleSided": true,
      "emissiveFactor": [
        0.016883128896674073,
        0.003002933177938736,
        0.009196951511951993
      ],
      "extensions": {
        "KHR_materials_specular": {
          "specularColorFactor": [
            1.0,
            1.0,
            1.0
          ],
          "specularFactor": 0.12038131925735392
        }
      },
      "name": "Toon_Shader",
      "pbrMetallicRoughness": {
        "baseColorFactor": [
          0.048171799999999994,
          0.0085681,
          0.02624119999999999,
          1.0
        ],
        "metallicFactor": 0.0,
        "roughnessFactor": 0.8979044507564213
      }
    },
    {
      "doubleSided": true,
      "extensions": {
        "KHR_materials_specular": {
          "specularColorFactor": [
            1.0,
            1.0,
            1.0
          ],
          "specularFactor": 0.6140971096292864
        }
      },
      "name": "Material.003",
      "pbrMetallicRoughness": {
        "baseColorFactor": [
          0.7999999999999999,
          0.03079490000000001,
          0.042172500000000064,
          1.0
        ],
        "metallicFactor": 0.0,
        "roughnessFactor": 0.5260937938096574
      }
    },
    {
      "name": "Material.004",
      "pbrMetallicRoughness": {
        "baseColorFactor": [
          0.0,
          0.0,
          0.0,
          1.0
        ],
        "metallicFactor": 0.0
      }
    },
    {
      "doubleSided": true,
      "emissiveFactor": [
        0.04970656598412723,
        0.0036765073240474346,
        0.009721217320237847
      ],
      "extensions": {
        "KHR_materials_emissive_strength": {
          "emissiveStrength": 3.3981055942265725
        },
        "KHR_materials_specular": {
          "specularColorFactor": [
            1.0,
            1.0,
            1.0
          ],
          "specularFactor": 0.0
        }
      },
      "name": "Material.006",
      "pbrMetallicRoughness": {
        "baseColorFactor": [
          0.0490923,
          0.0035713699999999986,
          0.009575550000000004,
          1.0
        ],
        "metallicFactor": 0.0,
        "roughnessFactor": 0.9956731751653739
      }
    },
    {
      "doubleSided": true,
      "emissiveFactor": [
        0.007726100576177697,
        0.0019290745509575127,
        0.004766735140638952
      ],
      "extensions": {
        "KHR_materials_emissive_strength": {
          "emissiveStrength": 1.5085760261364607
        },
        "KHR_materials_specular": {
          "specularColorFactor": [
            1.0,
            1.0,
            1.0
          ],
          "specularFactor": 0.059428752544769654
        }
      },
      "name": "Toon_Shader.001",
      "pbrMetallicRoughness": {
        "baseColorFactor": [
          0.0159941,
          0.00388102,
          0.009526479999999993,
          1.0
        ],
        "metallicFactor": 0.0,
        "roughnessFactor": 0.6967609806048933
      }
    },
    {
      "doubleSided": true,
      "emissiveFactor": [
        1.0,
        0.792676066466701,
        0.0
      ],
      "extensions": {
        "KHR_materials_emissive_strength": {
          "emissiveStrength": 10.0
        }
      },
      "name": "Material.002",
      "pbrMetallicRoughness": {
        "baseColorFactor": [
          1.0,
          0.817049,
          0.029862,
          1.0
        ],
        "metallicFactor": 0.0,
        "roughnessFactor": 0.2152357035754776
      }
    }
  ],
  "meshes": [
    {
      "name": "Plane.001_Toon Shader_0",
      "primitives": [
        {
          "attributes": {
            "NORMAL": 1,
            "POSITION": 0,
            "TEXCOORD_0": 2
          },
          "indices": 3,
          "material": 0,
          "mode": 4
        }
      ]
    },
    {
      "name": "Plane.001_Material.003_0",
      "primitives": [
        {
          "attributes": {
            "NORMAL": 5,
            "POSITION": 4,
            "TEXCOORD_0": 6
          },
          "indices": 7,
          "material": 1,
          "mode": 4
        }
      ]
    },
    {
      "name": "Plane.001_Material.004_0",
      "primitives": [
        {
          "attributes": {
            "NORMAL": 9,
            "POSITION": 8,
            "TEXCOORD_0": 10
          },
          "indices": 11,
          "material": 2,
          "mode": 4
        }
      ]
    },
    {
      "name": "Plane.001_Material.006_0",
      "primitives": [
        {
          "attributes": {
            "NORMAL": 13,
            "POSITION": 12,
            "TEXCOORD_0": 14
          },
          "indices": 15,
          "material": 3,
          "mode": 4
        }
      ]
    },
    {
      "name": "Plane.001_Toon Shader.001_0",
      "primitives": [
        {
          "attributes": {
            "NORMAL": 17,
            "POSITION": 16,
            "TEXCOORD_0": 18
          },
          "indices": 19,
          "material": 4,
          "mode": 4
        }
      ]
    },
    {
      "name": "Plane.001_Material.002_0",
      "primitives": [
        {
          "attributes": {
            "NORMAL": 21,
            "POSITION": 20,
            "TEXCOORD_0": 22
          },
          "indices": 23,
          "material": 5,
          "mode": 4
        }
      ]
    }
  ],
  "nodes": [
    {
      "children": [
        1
      ],
      "matrix": [
        1.0,
        0.0,
        0.0,
        0.0,
        0.0,
        2.220446049250313e-16,
        -1.0,
        0.0,
        0.0,
        1.0,
        2.220446049250313e-16,
        0.0,
        0.0,
        0.0,
        0.0,
        1.0
      ],
      "name": "Sketchfab_model"
    },
    {
      "children": [
        2
      ],
      "matrix": [
        0.009999999776482582,
        0.0,
        0.0,
        0.0,
        0.0,
        0.0,
        0.009999999776482582,
        0.0,
        0.0,
        -0.009999999776482582,
        0.0,
        0.0,
        0.0,
        0.0,
        0.0,
        1.0
      ],
      "name": "f64b8dd863ee4d1db5ff9d7c281aab7d.fbx"
    },
    {
      "children": [
        3
      ],
      "name": "RootNode"
    },
    {
      "children": [
        4,
        5,
        6,
        7,
        8,
        9
      ],
      "matrix": [
        30.023128509521484,
        0.0,
        0.0,
        0.0,
        0.0,
        -8.470424320617839e-06,
        -30.02312850952029,
        0.0,
        0.0,
        30.02312850952029,
        -8.470424320617839e-06,
        0.0,
        0.0,
        181.78762817382813,
        43.583045959472656,
        1.0
      ],
      "name": "Plane.001"
    },
    {
      "mesh": 0,
      "name": "Plane.001_Toon Shader_0"
    },
    {
      "mesh": 1,
      "name": "Plane.001_Material.003_0"
    },
    {
      "mesh": 2,
      "name": "Plane.001_Material.004_0"
    },
    {
      "mesh": 3,
      "name": "Plane.001_Material.006_0"
    },
    {
      "mesh": 4,
      "name": "Plane.001_Toon Shader.001_0"
    },
    {
      "mesh": 5,
      "name": "Plane.001_Material.002_0"
    }
  ],
  "scene": 0,
  "scenes": [
    {
      "name": "Sketchfab_Scene",
      "nodes": [
        0
      ]
    }
  ]
}
